<svg xmlns="http://www.w3.org/2000/svg" xmlns:xlink="http://www.w3.org/1999/xlink" width="301" height="278" viewBox="0 0 301 278">
    <defs>
        <path id="a" d="M138.683 9H.585V.162h138.098V9z"/>
    </defs>
    <g fill="none" fill-rule="evenodd">
        <path fill="#D6D6D6" d="M299.997 143.196a6.285 6.285 0 1 1-12.571 0 6.286 6.286 0 1 1 12.57 0M36.516 95.23a3.958 3.958 0 1 1-7.916 0 3.958 3.958 0 0 1 7.916 0M7.917 203.827a3.958 3.958 0 1 1-7.917 0 3.958 3.958 0 1 1 7.917 0M62.596 233.384a3.958 3.958 0 1 1-7.917.001 3.958 3.958 0 0 1 7.916-.001M297.67 99.188a3.958 3.958 0 1 1-7.917.001 3.958 3.958 0 0 1 7.917-.001M285.021 38.987a3.958 3.958 0 1 1-7.916 0 3.958 3.958 0 0 1 7.916 0M285.021 223.925a3.958 3.958 0 1 1-7.917 0 3.958 3.958 0 1 1 7.917 0M148.97 38.987a3.958 3.958 0 1 1-7.916.001 3.958 3.958 0 0 1 7.916-.001M10.125 135.795l3.745 1.048a2.021 2.021 0 0 1 1.404 1.345l1.095 3.584c.58 1.898 3.39 1.898 3.97 0l1.094-3.584a2.025 2.025 0 0 1 1.405-1.345l3.745-1.048a1.957 1.957 0 0 0 0-3.799l-3.745-1.048a2.025 2.025 0 0 1-1.405-1.344l-1.094-3.584c-.58-1.899-3.39-1.899-3.97 0l-1.095 3.584a2.022 2.022 0 0 1-1.404 1.344l-3.745 1.048a1.957 1.957 0 0 0 0 3.8M40.63 168.156l-1.873-.523a1.015 1.015 0 0 1-.702-.673l-.547-1.792c-.29-.95-1.695-.95-1.985 0l-.547 1.792a1.015 1.015 0 0 1-.702.673l-1.873.523a.978.978 0 0 0 0 1.9l1.873.524c.338.095.603.347.702.672l.547 1.792c.29.95 1.695.95 1.985 0l.547-1.792c.1-.325.364-.577.702-.672l1.873-.525a.978.978 0 0 0 0-1.899M274.904 132.946l-1.872-.523a1.011 1.011 0 0 1-.702-.673l-.548-1.792c-.29-.95-1.694-.95-1.984 0l-.548 1.792a1.015 1.015 0 0 1-.702.673l-1.873.523a.978.978 0 0 0 0 1.899l1.873.525c.338.095.603.347.702.672l.548 1.792c.29.949 1.694.949 1.984 0l.548-1.792c.098-.325.363-.577.702-.672l1.872-.525a.978.978 0 0 0 0-1.9M299.008 185.24l-3.745-1.049a2.024 2.024 0 0 1-1.404-1.344l-1.095-3.584c-.58-1.899-3.39-1.899-3.97 0l-1.095 3.584a2.022 2.022 0 0 1-1.404 1.344l-3.745 1.048a1.957 1.957 0 0 0 0 3.8l3.745 1.049a2.023 2.023 0 0 1 1.404 1.343l1.095 3.584c.58 1.9 3.39 1.9 3.97 0l1.095-3.584a2.024 2.024 0 0 1 1.404-1.344l3.745-1.047a1.957 1.957 0 0 0 0-3.8"/>
        <g transform="translate(85 268.381)">
            <mask id="b" fill="#fff">
                <use xlink:href="#a"/>
            </mask>
            <path fill="#D6D6D6" d="M138.683 4.581c0 2.44-30.914 4.42-69.049 4.42C31.5 9 .585 7.02.585 4.58S31.5.162 69.635.162c38.134 0 69.048 1.98 69.048 4.42" mask="url(#b)"/>
        </g>
        <path stroke="#4E4F68" stroke-linecap="round" stroke-linejoin="round" stroke-width="3" d="M244.544 156.54c0 49.656-40.254 89.91-89.91 89.91s-89.91-40.254-89.91-89.91c0-49.655 40.254-89.909 89.91-89.909s89.91 40.254 89.91 89.91z"/>
        <path fill="#6AD0EF" d="M124.557 109.968h-9.647a8.533 8.533 0 0 1 0-17.065h9.647a8.533 8.533 0 1 1 0 17.065M64.841 161.164h9.212a8.533 8.533 0 1 0 0-17.065h-8.468a90.68 90.68 0 0 0-.744 17.065M97.844 195.295H73.486A89.892 89.892 0 0 0 84.15 212.36h13.694a8.533 8.533 0 0 0 0-17.065M215.864 152.631a8.532 8.532 0 0 1 8.533-8.532h2.99a8.532 8.532 0 1 1 0 17.065h-2.99a8.533 8.533 0 0 1-8.533-8.533m-16.73 8.533h-37.982a8.533 8.533 0 1 1 0-17.065h37.983a8.532 8.532 0 1 1 0 17.065m45.41-4.623a89.754 89.754 0 0 0-4.961-29.508h-44.898a8.533 8.533 0 1 1 0-17.065h36.871a90.275 90.275 0 0 0-13.41-17.066h-56.995a8.533 8.533 0 0 0 0 17.066h5.913a8.532 8.532 0 1 1 0 17.065h-31.297a8.427 8.427 0 0 0-8.427 8.428v.21a8.428 8.428 0 0 0 8.427 8.428H99.35a8.532 8.532 0 1 0 0 17.065h21.388a8.534 8.534 0 0 0 0 17.066h35.813a8.532 8.532 0 1 1 0 17.065h-22.35a8.533 8.533 0 0 0 0 17.065h90.916c12.16-15.334 19.427-34.728 19.427-55.819M104.811 81.692h55.511a8.427 8.427 0 0 0 8.428-8.428v-.21a8.39 8.39 0 0 0-2.17-5.632 90.88 90.88 0 0 0-11.946-.791c-18.429 0-35.56 5.549-49.823 15.06M164.979 229.426a8.427 8.427 0 0 0-8.428 8.428v.209a8.432 8.432 0 0 0 5.91 8.045 89.432 89.432 0 0 0 44.82-16.682H164.98z"/>
        <path stroke="#4E5878" stroke-linecap="round" stroke-linejoin="round" stroke-width="4" d="M244.544 156.54c0 49.656-40.254 89.91-89.91 89.91s-89.91-40.254-89.91-89.91c0-49.655 40.254-89.909 89.91-89.909s89.91 40.254 89.91 89.91z"/>
        <path d="M193.197 102.508l42.723 17.738s14.062 23.853 7.504 50.496l-57.471-66.689 7.244-1.545zM118.573 214.079l19.862 30.093-22.961-6.405zM140.6 132.17l94.625 64.262s-30.37 38.337-41.448 40.227l-57.01-101.684 3.833-2.805zM80.097 116.697l70.058 61.533s-19.344 15.174-30.422 17.065l-46.248-75.049 6.612-3.549z"/>
        <path fill="#FFF" d="M188.953 104.053a3.39 3.39 0 0 0 4.243-1.545c8.588-15.833 35.268-30.303 39.644-41.252 5.036-12.6-1.217-26.95-13.97-32.048-12.753-5.096-27.177.988-32.214 13.588-4.765 11.922 4.957 39.88.288 57.214a3.392 3.392 0 0 0 2.01 4.043"/>
        <path fill="#F4716E" d="M189.045 104.09c1.416.584 2.39-.47 3.215-2 8.574-15.898 34.987-28.925 39.922-40.884 5.216-12.64.31-26.66-10.953-31.308-11.266-4.648-24.625 1.836-29.841 14.476-4.532 10.985 2.412 39.293-2.743 56.667-.494 1.666.188 3.36 1.605 3.944l-1.205-.896z"/>
        <path stroke="#4E4F68" stroke-linecap="round" stroke-linejoin="round" stroke-width="3" d="M188.953 104.053a3.39 3.39 0 0 0 4.243-1.545c8.588-15.833 35.268-30.303 39.644-41.252 5.036-12.6-1.217-26.95-13.97-32.048-12.753-5.096-27.177.988-32.214 13.588-4.765 11.922 4.957 39.88.288 57.214a3.392 3.392 0 0 0 2.01 4.043z"/>
        <path fill="#FFF" d="M80.005 119.698a1.222 1.222 0 0 0-.241-1.61c-4.971-4.168-8.161-14.627-11.711-16.959-4.086-2.684-9.601-1.508-12.317 2.627-2.716 4.135-1.606 9.665 2.48 12.347 3.866 2.54 14.434 1.118 20.217 4.013.556.278 1.23.102 1.572-.418"/>
        <path stroke="#4E4F68" stroke-linecap="round" stroke-linejoin="round" stroke-width="3" d="M80.005 119.698a1.222 1.222 0 0 0-.241-1.61c-4.971-4.168-8.161-14.627-11.711-16.959-4.086-2.684-9.601-1.508-12.317 2.627-2.716 4.135-1.606 9.665 2.48 12.347 3.866 2.54 14.434 1.118 20.217 4.013.556.278 1.23.102 1.572-.418z"/>
        <path fill="#FFF" d="M214.4 197.616a1.22 1.22 0 0 0 .24 1.608c4.972 4.17 8.162 14.628 11.712 16.96 4.086 2.684 9.601 1.508 12.317-2.627 2.716-4.135 1.605-9.665-2.48-12.348-3.866-2.539-14.434-1.117-20.217-4.012a1.222 1.222 0 0 0-1.572.42"/>
        <path stroke="#4E4F68" stroke-linecap="round" stroke-linejoin="round" stroke-width="3" d="M214.4 197.616a1.22 1.22 0 0 0 .24 1.608c4.972 4.17 8.162 14.628 11.712 16.96 4.086 2.684 9.601 1.508 12.317-2.627 2.716-4.135 1.605-9.665-2.48-12.348-3.866-2.539-14.434-1.117-20.217-4.012a1.222 1.222 0 0 0-1.572.42z"/>
        <path fill="#FFF" d="M139.543 133.84a1.483 1.483 0 0 0 1.057-1.67c-1.254-7.778 4.124-19.917 2.715-24.879-1.62-5.71-7.619-9.01-13.398-7.37-5.78 1.641-9.15 7.601-7.53 13.311 1.533 5.402 12.368 12.491 15.38 19.743.29.697 1.05 1.07 1.776.864"/>
        <path stroke="#4E4F68" stroke-linecap="round" stroke-linejoin="round" stroke-width="3" d="M139.543 133.84a1.483 1.483 0 0 0 1.057-1.67c-1.254-7.778 4.124-19.917 2.715-24.879-1.62-5.71-7.619-9.01-13.398-7.37-5.78 1.641-9.15 7.601-7.53 13.311 1.533 5.402 12.368 12.491 15.38 19.743.29.697 1.05 1.07 1.776.864z"/>
        <path fill="#FFF" d="M116.928 214.212a1.484 1.484 0 0 0-1.927.433c-4.614 6.386-17 11.168-19.511 15.671-2.893 5.184-.986 11.76 4.261 14.687 5.248 2.927 11.846 1.096 14.737-4.088 2.737-4.904.087-17.578 3.085-24.836a1.485 1.485 0 0 0-.644-1.867"/>
        <path stroke="#4E4F68" stroke-linecap="round" stroke-linejoin="round" stroke-width="3" d="M116.928 214.212a1.484 1.484 0 0 0-1.927.433c-4.614 6.386-17 11.168-19.511 15.671-2.893 5.184-.986 11.76 4.261 14.687 5.248 2.927 11.846 1.096 14.737-4.088 2.737-4.904.087-17.578 3.085-24.836a1.485 1.485 0 0 0-.644-1.867z"/>
        <path fill="#FEC32A" d="M24.64 35.078c0-11.069 8.972-20.042 20.041-20.042 11.07 0 20.044 8.973 20.044 20.042 0 11.07-8.973 20.042-20.043 20.042-11.07 0-20.043-8.973-20.043-20.042"/>
        <path stroke="#4E4F68" stroke-linecap="round" stroke-linejoin="round" stroke-width="3" d="M207.187 15.77L203.199 1.5M240.201 29.878l13.214-8.12M224.892 19.388l6.178-15.314"/>
        <path stroke="#4E5878" stroke-dasharray="0,15.284" stroke-linecap="round" stroke-linejoin="round" stroke-width="5" d="M249.196 86.053c17.96-6.1 27.707-7.363 29.74-3.478 4.715 9.018-47.926 45.861-117.579 82.291-69.653 36.432-129.94 58.655-134.658 49.637-2.084-3.983 7.025-13.395 23.848-25.804"/>
        <path fill="#FFF" fill-rule="nonzero" d="M212.94 54.074c-.122-.12-.715-1.284.417-2.776 1.866-1.012 3.82-3.046 4.605-5.46 1.189-3.658-.608-6.344-3.314-7.224-2.707-.88-5.666.262-6.855 3.92-.784 2.414-.471 5.185.443 7.1.037 1.63-1.27 2.418-1.514 2.42-3.21.17-7.12 1.002-7.738 2.904l-.238.732c-.782 2.657 3.832 4.885 8.295 6.335 4.463 1.45 9.481 2.433 10.337-.2l.238-.732c.715-1.951-2.009-5.02-4.675-7.019z"/>
    </g>
</svg>
